HIERARCHY
ROOT Hips
{
	OFFSET 0.000000 0.000000 0.000000
	CHANNELS 6 Xposition Yposition Zposition Xrotation Yrotation Zrotation
	JOINT LeftUpLeg_virtual
	{
		OFFSET 0.000000 0.000000 0.000000
		CHANNELS 3 Xrotation Yrotation Zrotation
		JOINT LeftUpLeg
		{
			OFFSET 13.026900 -6.336304 -1.092800
			CHANNELS 3 Xrotation Yrotation Zrotation
			JOINT LeftLeg
			{
				OFFSET 0.524474 -46.096886 9.782700
				CHANNELS 3 Xrotation Yrotation Zrotation
				JOINT LeftFoot
				{
					OFFSET -0.524474 -53.427422 -12.948200
					CHANNELS 3 Xrotation Yrotation Zrotation
					JOINT LeftToeBase
					{
						OFFSET 0.192200 -14.009700 16.364100
						CHANNELS 3 Xrotation Yrotation Zrotation
						JOINT LeftToe_End
						{
							OFFSET -1.784700 -0.561700 9.474800
							CHANNELS 3 Xrotation Yrotation Zrotation
							End Site
							{
								OFFSET 0 0 0
							}
						}
					}
				}
			}
		}
	}
	JOINT RightUpLeg_virtual
	{
		OFFSET 0.000000 0.000000 0.000000
		CHANNELS 3 Xrotation Yrotation Zrotation
		JOINT RightUpLeg
		{
			OFFSET -12.883000 -6.336304 -1.092800
			CHANNELS 3 Xrotation Yrotation Zrotation
			JOINT RightLeg
			{
				OFFSET -0.524587 -46.096825 9.782800
				CHANNELS 3 Xrotation Yrotation Zrotation
				JOINT RightFoot
				{
					OFFSET 0.524587 -53.427383 -12.948300
					CHANNELS 3 Xrotation Yrotation Zrotation
					JOINT RightToeBase
					{
						OFFSET -0.192200 -14.009700 16.364100
						CHANNELS 3 Xrotation Yrotation Zrotation
						JOINT RightToe_End
						{
							OFFSET 1.784700 -0.561700 9.474800
							CHANNELS 3 Xrotation Yrotation Zrotation
							End Site
							{
								OFFSET 0 0 0
							}
						}
					}
				}
			}
		}
	}
	JOINT Spine_virtual
	{
		OFFSET 0.000000 0.000000 0.000000
		CHANNELS 3 Xrotation Yrotation Zrotation
		JOINT Spine
		{
			OFFSET 0.072000 7.257294 -0.789700
			CHANNELS 3 Xrotation Yrotation Zrotation
			JOINT Spine1
			{
				OFFSET 0.000000 12.508769 -0.658067
				CHANNELS 3 Xrotation Yrotation Zrotation
				JOINT Spine1_split
				{
					OFFSET 0.000000 12.508769 -0.658067
					CHANNELS 3 Xrotation Yrotation Zrotation
					JOINT Spine2
					{
						OFFSET 0.000000 12.508769 -0.658067
						CHANNELS 3 Xrotation Yrotation Zrotation
						JOINT Neck_virtual
						{
							OFFSET 0.000000 0.000000 0.000000
							CHANNELS 3 Xrotation Yrotation Zrotation
							JOINT Neck
							{
								OFFSET 0.000000 14.033295 7.520400
								CHANNELS 3 Xrotation Yrotation Zrotation
								JOINT Head
								{
									OFFSET 0.000000 8.198502 5.703100
									CHANNELS 3 Xrotation Yrotation Zrotation
									JOINT HeadTop_End
									{
										OFFSET 0.000000 17.760803 13.332701
										CHANNELS 3 Xrotation Yrotation Zrotation
										End Site
										{
											OFFSET 0 0 0
										}
									}
								}
							}
						}
						JOINT LeftShoulder_virtual
						{
							OFFSET 0.000000 0.000000 0.000000
							CHANNELS 3 Xrotation Yrotation Zrotation
							JOINT LeftShoulder
							{
								OFFSET 6.292450 5.785301 -0.669000
								CHANNELS 3 Xrotation Yrotation Zrotation
								JOINT LeftShoulder_split
								{
									OFFSET 6.292450 5.785301 -0.669000
									CHANNELS 3 Xrotation Yrotation Zrotation
									JOINT LeftArm
									{
										OFFSET 13.907140 -6.093903 1.965100
										CHANNELS 3 Xrotation Yrotation Zrotation
										JOINT LeftForeArm
										{
											OFFSET 34.140198 0.000000 0.000000
											CHANNELS 3 Xrotation Yrotation Zrotation
											JOINT LeftHand
											{
												OFFSET 40.960209 0.000000 0.000000
												CHANNELS 3 Xrotation Yrotation Zrotation
												End Site
												{
													OFFSET 0 0 0
												}
											}
										}
									}
								}
							}
						}
						JOINT RightShoulder_virtual
						{
							OFFSET 0.000000 0.000000 0.000000
							CHANNELS 3 Xrotation Yrotation Zrotation
							JOINT RightShoulder
							{
								OFFSET -6.292450 5.785301 -0.669000
								CHANNELS 3 Xrotation Yrotation Zrotation
								JOINT RightShoulder_split
								{
									OFFSET -6.292450 5.785301 -0.669000
									CHANNELS 3 Xrotation Yrotation Zrotation
									JOINT RightArm
									{
										OFFSET -13.907140 -6.093903 1.965100
										CHANNELS 3 Xrotation Yrotation Zrotation
										JOINT RightForeArm
										{
											OFFSET -34.140198 0.000000 0.000000
											CHANNELS 3 Xrotation Yrotation Zrotation
											JOINT RightHand
											{
												OFFSET -40.960209 0.000000 0.000000
												CHANNELS 3 Xrotation Yrotation Zrotation
												End Site
												{
													OFFSET 0 0 0
												}
											}
										}
									}
								}
							}
						}
					}
				}
			}
		}
	}
}
MOTION
Frames: 7
Frame Time: 0.03333333
1.218876 113.576675 -9.807270 0.000000 0.000000 0.000000 3.300033 3.416213 0.383650 -22.550727 16.351493 12.789473 23.195760 0.044933 2.556923 -3.614295 10.558103 -11.613453 2.718070 -3.720366 1.501401 0.000000 0.000000 0.000000 3.911364 3.539053 0.479923 -15.325413 -6.547720 -8.450265 21.981017 -1.060218 -0.606690 -8.797273 -6.266132 17.949408 5.321363 3.253303 -7.165183 0.000000 0.000000 0.000000 1.814880 8.875853 0.126437 1.841453 -2.477555 -1.036908 3.641918 2.424513 2.227649 0.160357 -0.565613 0.087112 0.000000 0.000000 0.000000 2.539830 4.212415 2.679117 -10.677347 6.222442 5.468370 -0.678234 -12.666775 8.986503 0.000000 0.000000 0.000000 0.755297 2.759636 2.007709 -1.409098 -3.503901 0.355241 0.546359 -0.731103 -1.470478 0.817007 28.098521 -76.532686 5.392282 -36.031714 0.004167 0.000000 0.000000 0.000000 2.095425 2.775366 2.546210 -1.147459 -13.449836 -1.341187 -2.899797 0.874803 -2.627736 -5.581373 -1.245414 75.089529 2.200855 15.106294 -3.962448 0.000000 0.000000 0.000000 
1.674669 113.531403 -9.401272 0.000000 0.000000 0.000000 3.343520 3.023748 0.382547 -22.814700 16.578394 12.852535 23.411983 -0.122192 2.526034 -3.693950 10.390769 -11.645502 2.560928 -3.730511 1.676950 0.000000 0.000000 0.000000 3.921595 3.596356 0.457215 -15.275590 -6.506857 -8.623249 22.167758 -1.169701 -0.566039 -8.959975 -6.469731 17.409633 5.994959 3.223451 -7.122611 0.000000 0.000000 0.000000 1.816263 8.550599 -0.093094 1.867547 -2.570417 -0.881517 3.712832 2.344592 2.215165 0.154118 -0.637979 0.091774 0.000000 0.000000 0.000000 2.622698 4.137899 2.703687 -10.590010 6.393709 5.370751 -0.982212 -12.494655 9.157670 0.000000 0.000000 0.000000 0.721032 2.675878 2.000847 -1.344506 -3.272475 0.032452 0.603560 -1.003329 -1.084720 0.866230 27.826158 -76.458893 5.424771 -35.870665 -0.112964 0.000000 0.000000 0.000000 2.117141 2.684815 2.571564 -0.993065 -13.614556 -1.318213 -2.626853 1.936581 -2.313612 -4.298816 -0.777045 75.200704 2.242152 14.770976 -3.944234 0.000000 0.000000 0.000000 
2.332732 113.448875 -9.056118 0.000000 0.000000 0.000000 3.475483 2.685635 0.331657 -23.363154 16.636876 12.870605 24.081065 -0.441578 2.601760 -3.841754 9.974493 -11.774817 2.464863 -3.698326 1.753922 0.000000 0.000000 0.000000 3.943393 3.750905 0.389750 -15.401633 -6.551385 -8.897786 22.119537 -1.201349 -0.576152 -8.747394 -6.885823 17.187148 6.107699 3.247269 -7.077372 0.000000 0.000000 0.000000 1.963516 8.182620 -0.360060 1.971679 -2.751426 -0.664725 3.785600 2.158251 2.197832 0.159076 -0.729011 0.077797 0.000000 0.000000 0.000000 2.760625 3.949910 2.720148 -10.790126 6.488682 5.352924 -1.655277 -11.568218 9.220674 0.000000 0.000000 0.000000 0.725393 2.483074 1.994541 -1.267413 -2.713732 -0.251188 0.416786 -1.203109 -0.764744 1.589005 27.279019 -76.224672 4.976019 -36.340855 -0.473892 0.000000 0.000000 0.000000 2.159099 2.473341 2.587930 -0.792515 -14.006893 -1.378665 -2.620474 3.280741 -2.344215 -2.469542 0.373955 75.523574 2.347174 15.024242 -3.884323 0.000000 0.000000 0.000000 
3.159763 113.302834 -8.888630 0.000000 0.000000 0.000000 3.680024 2.397154 0.246776 -24.069177 16.601711 12.828929 24.989138 -0.765459 2.741046 -4.094388 9.485120 -11.843072 2.390258 -3.621265 1.733574 0.000000 0.000000 0.000000 4.005357 3.897335 0.286948 -15.728042 -6.580702 -9.245047 22.013715 -1.103753 -0.574757 -7.860287 -7.269702 17.476468 5.461799 3.309950 -7.018605 0.000000 0.000000 0.000000 2.237457 7.808532 -0.628185 2.138506 -2.959051 -0.417747 3.859782 1.897489 2.165120 0.159684 -0.759301 0.064125 0.000000 0.000000 0.000000 2.941007 3.678493 2.700606 -11.232691 6.448904 5.435466 -2.528633 -9.931700 9.239028 0.000000 0.000000 0.000000 0.771337 2.216992 1.952962 -1.184357 -1.935336 -0.490020 0.110178 -1.376548 -0.592951 2.952295 26.460966 -75.868198 4.110403 -37.500160 -1.053506 0.000000 0.000000 0.000000 2.229016 2.190921 2.568598 -0.553199 -14.630953 -1.513332 -2.666476 4.267722 -2.650444 -0.633271 1.837939 75.794520 2.430058 15.779069 -3.735503 0.000000 0.000000 0.000000 
4.120738 113.080276 -8.877239 0.000000 0.000000 0.000000 3.911169 2.093831 0.131213 -24.814301 16.505316 12.705619 26.014782 -0.976912 2.892837 -4.408096 9.143777 -11.814979 2.334269 -3.497262 1.614703 0.000000 0.000000 0.000000 4.193057 4.052887 0.136228 -16.113395 -6.563924 -9.590317 21.796863 -0.934497 -0.546850 -6.642264 -7.538884 17.908911 4.816859 3.365319 -6.929735 0.000000 0.000000 0.000000 2.542441 7.384404 -0.846075 2.363930 -3.124670 -0.167383 3.941829 1.592009 2.093970 0.160914 -0.689891 0.064076 0.000000 0.000000 0.000000 3.152879 3.367172 2.619263 -11.826460 6.236262 5.658469 -3.366536 -7.715837 9.323207 0.000000 0.000000 0.000000 0.856198 1.917812 1.852145 -1.100410 -1.056285 -0.687661 -0.398151 -1.494554 -0.619641 4.865029 25.476110 -75.418245 2.944911 -39.228976 -1.815070 0.000000 0.000000 0.000000 2.337236 1.892584 2.483130 -0.277215 -15.429402 -1.678046 -2.698686 4.741238 -2.966011 0.776157 3.366923 75.820168 2.402314 16.886265 -3.453177 0.000000 0.000000 0.000000 
5.144353 112.768295 -9.013111 0.000000 0.000000 0.000000 4.123947 1.806283 -0.012342 -25.525081 16.453243 12.524848 27.041694 -0.958971 3.001032 -4.851072 9.111178 -11.587147 2.337335 -3.334249 1.391978 0.000000 0.000000 0.000000 4.434353 4.195118 -0.052726 -16.511175 -6.464580 -9.917232 21.339775 -0.724409 -0.517472 -5.784249 -7.632023 17.888653 4.821043 3.387246 -6.787965 0.000000 0.000000 0.000000 2.852603 6.785035 -1.006204 2.632466 -3.192944 0.077786 4.031216 1.273832 1.962117 0.146332 -0.556089 0.080239 0.000000 0.000000 0.000000 3.383395 3.044933 2.451231 -12.477951 5.883604 6.027916 -4.003850 -5.095543 9.553907 0.000000 0.000000 0.000000 0.981008 1.609610 1.681615 -1.029594 -0.137789 -0.854362 -0.935580 -1.494113 -0.816726 7.084450 24.480889 -74.916711 1.597421 -41.371535 -2.720636 0.000000 0.000000 0.000000 2.487311 1.602720 2.312990 0.037596 -16.263322 -1.829508 -2.635469 4.770733 -3.147634 1.421252 4.779182 75.484846 2.198898 18.126917 -3.000780 0.000000 0.000000 0.000000 
6.239001 112.396812 -9.175983 0.000000 0.000000 0.000000 4.292029 1.538019 -0.155104 -26.138794 16.458818 12.280723 27.955380 -0.659944 3.044064 -5.388540 9.399700 -11.182325 2.336995 -3.151482 1.100498 0.000000 0.000000 0.000000 4.690844 4.219209 -0.222814 -17.059431 -6.294868 -10.295855 20.864266 -0.327853 -0.511383 -5.381463 -7.346942 17.188497 5.487750 3.388434 -6.626666 0.000000 0.000000 0.000000 3.129955 6.032940 -1.085428 2.948476 -3.132253 0.314412 4.126176 0.934885 1.763941 0.131226 -0.404417 0.103838 0.000000 0.000000 0.000000 3.612698 2.729740 2.187443 -13.089077 5.434795 6.512307 -4.360170 -2.239463 9.975077 0.000000 0.000000 0.000000 1.157802 1.294315 1.445275 -0.986600 0.773834 -1.036244 -1.345974 -1.465377 -1.039047 9.460672 23.613093 -74.389694 0.174520 -43.744445 -3.728874 0.000000 0.000000 0.000000 2.666549 1.324739 2.077252 0.378305 -17.015878 -1.974190 -2.394044 4.538590 -3.033310 1.309481 6.227819 74.888400 1.800920 19.519694 -2.382142 0.000000 0.000000 0.000000 
